<!DOCTYPE svg PUBLIC "-//W3C//DTD SVG 1.1//EN" "http://www.w3.org/Graphics/SVG/1.1/DTD/svg11.dtd">

<!-- Uploaded to: SVG Repo, www.svgrepo.com, Transformed by: SVG Repo Mixer Tools -->
<svg xmlns="http://www.w3.org/2000/svg" 
    aria-label="DataCamp" 
    role="img" 
    viewBox="0 0 512 512" 
    width="200px" 
    height="200px" 
    fill="none">

<g id="SVGRepo_bgCarrier" stroke-width="0"/>

<g id="SVGRepo_tracerCarrier" stroke-linecap="round" stroke-linejoin="round" stroke="#CCCCCC" stroke-width="20.48"/>

<g id="SVGRepo_iconCarrier">
 
<path fill="white" d="m273.2 378.4v-95.3l150.4-85.8-36.6-20.9-113.8 64.9v-95.7c0-6.4-3.5-12.5-9.1-15.7L127.2 51.3a26.1 26.1 90 00-26.5.8A26.1 26.1 90 0088.4 74.4v268.9c0 9.1 4.6 17.5 12.3 22.3a26 26 90 0026.5.8l109.7-62.6V389c0 6.5 3.6 12.6 9.2 15.8l140.7 80.1 36.6-21-150.2-85.5zm-36.3-222.2V262l-112.2 64V91.8l112.2 64.4z"/>

</g>

</svg>